<svg xmlns="http://www.w3.org/2000/svg" width="2400" height="1350" viewBox="0 0 2400 1350"><defs><clipPath id="c0_2"><circle cx="1200.00" cy="675.00" r="869.73"><animate attributeName="r" values="869.73;862.09;849.80;834.75;819.21;805.56;795.88;791.63;793.47;801.11;813.40;828.45;843.99;857.64;867.32;871.57;869.73" dur="9.000s" repeatCount="indefinite"/></circle></clipPath><clipPath id="c0_1"><circle cx="1200.00" cy="675.00" r="502.16"><animate attributeName="r" values="502.16;495.61;495.00;500.41;511.03;525.24;540.87;555.55;567.04;573.59;574.20;568.79;558.17;543.96;528.33;513.65;502.16" dur="9.000s" repeatCount="indefinite"/></circle></clipPath><clipPath id="c0_0"><circle cx="1200.00" cy="675.00" r="237.60"><animate attributeName="r" values="237.60;252.94;265.95;274.64;277.70;274.64;265.95;252.94;237.60;222.26;209.25;200.56;197.51;200.56;209.25;222.26;237.60" dur="9.000s" repeatCount="indefinite"/></circle></clipPath></defs><rect width="2400" height="1350" fill="#193e2d"/><g fill="#275039" shape-rendering="crispEdges"><rect x="-45.07" y="-2" width="35.59" height="1354.00"/><rect x="16.30" y="-2" width="35.59" height="1354.00"/><rect x="77.66" y="-2" width="35.59" height="1354.00"/><rect x="139.02" y="-2" width="35.59" height="1354.00"/><rect x="200.39" y="-2" width="35.59" height="1354.00"/><rect x="261.75" y="-2" width="35.59" height="1354.00"/><rect x="323.11" y="-2" width="35.59" height="1354.00"/><rect x="384.48" y="-2" width="35.59" height="1354.00"/><rect x="445.84" y="-2" width="35.59" height="1354.00"/><rect x="507.20" y="-2" width="35.59" height="1354.00"/><rect x="568.57" y="-2" width="35.59" height="1354.00"/><rect x="629.93" y="-2" width="35.59" height="1354.00"/><rect x="691.30" y="-2" width="35.59" height="1354.00"/><rect x="752.66" y="-2" width="35.59" height="1354.00"/><rect x="814.02" y="-2" width="35.59" height="1354.00"/><rect x="875.39" y="-2" width="35.59" height="1354.00"/><rect x="936.75" y="-2" width="35.59" height="1354.00"/><rect x="998.11" y="-2" width="35.59" height="1354.00"/><rect x="1059.48" y="-2" width="35.59" height="1354.00"/><rect x="1120.84" y="-2" width="35.59" height="1354.00"/><rect x="1182.20" y="-2" width="35.59" height="1354.00"/><rect x="1243.57" y="-2" width="35.59" height="1354.00"/><rect x="1304.93" y="-2" width="35.59" height="1354.00"/><rect x="1366.30" y="-2" width="35.59" height="1354.00"/><rect x="1427.66" y="-2" width="35.59" height="1354.00"/><rect x="1489.02" y="-2" width="35.59" height="1354.00"/><rect x="1550.39" y="-2" width="35.59" height="1354.00"/><rect x="1611.75" y="-2" width="35.59" height="1354.00"/><rect x="1673.11" y="-2" width="35.59" height="1354.00"/><rect x="1734.48" y="-2" width="35.59" height="1354.00"/><rect x="1795.84" y="-2" width="35.59" height="1354.00"/><rect x="1857.20" y="-2" width="35.59" height="1354.00"/><rect x="1918.57" y="-2" width="35.59" height="1354.00"/><rect x="1979.93" y="-2" width="35.59" height="1354.00"/><rect x="2041.30" y="-2" width="35.59" height="1354.00"/><rect x="2102.66" y="-2" width="35.59" height="1354.00"/><rect x="2164.02" y="-2" width="35.59" height="1354.00"/><rect x="2225.39" y="-2" width="35.59" height="1354.00"/><rect x="2286.75" y="-2" width="35.59" height="1354.00"/><rect x="2348.11" y="-2" width="35.59" height="1354.00"/><rect x="2409.48" y="-2" width="35.59" height="1354.00"/></g><g clip-path="url(#c0_2)"><rect width="2400" height="1350" fill="#275039"/><g fill="#193e2d" shape-rendering="crispEdges"><rect x="-45.07" y="-2" width="35.59" height="1354.00"/><rect x="16.30" y="-2" width="35.59" height="1354.00"/><rect x="77.66" y="-2" width="35.59" height="1354.00"/><rect x="139.02" y="-2" width="35.59" height="1354.00"/><rect x="200.39" y="-2" width="35.59" height="1354.00"/><rect x="261.75" y="-2" width="35.59" height="1354.00"/><rect x="323.11" y="-2" width="35.59" height="1354.00"/><rect x="384.48" y="-2" width="35.59" height="1354.00"/><rect x="445.84" y="-2" width="35.59" height="1354.00"/><rect x="507.20" y="-2" width="35.59" height="1354.00"/><rect x="568.57" y="-2" width="35.59" height="1354.00"/><rect x="629.93" y="-2" width="35.59" height="1354.00"/><rect x="691.30" y="-2" width="35.59" height="1354.00"/><rect x="752.66" y="-2" width="35.59" height="1354.00"/><rect x="814.02" y="-2" width="35.59" height="1354.00"/><rect x="875.39" y="-2" width="35.59" height="1354.00"/><rect x="936.75" y="-2" width="35.59" height="1354.00"/><rect x="998.11" y="-2" width="35.59" height="1354.00"/><rect x="1059.48" y="-2" width="35.59" height="1354.00"/><rect x="1120.84" y="-2" width="35.59" height="1354.00"/><rect x="1182.20" y="-2" width="35.59" height="1354.00"/><rect x="1243.57" y="-2" width="35.59" height="1354.00"/><rect x="1304.93" y="-2" width="35.59" height="1354.00"/><rect x="1366.30" y="-2" width="35.59" height="1354.00"/><rect x="1427.66" y="-2" width="35.59" height="1354.00"/><rect x="1489.02" y="-2" width="35.59" height="1354.00"/><rect x="1550.39" y="-2" width="35.59" height="1354.00"/><rect x="1611.75" y="-2" width="35.59" height="1354.00"/><rect x="1673.11" y="-2" width="35.59" height="1354.00"/><rect x="1734.48" y="-2" width="35.59" height="1354.00"/><rect x="1795.84" y="-2" width="35.59" height="1354.00"/><rect x="1857.20" y="-2" width="35.59" height="1354.00"/><rect x="1918.57" y="-2" width="35.59" height="1354.00"/><rect x="1979.93" y="-2" width="35.59" height="1354.00"/><rect x="2041.30" y="-2" width="35.59" height="1354.00"/><rect x="2102.66" y="-2" width="35.59" height="1354.00"/><rect x="2164.02" y="-2" width="35.59" height="1354.00"/><rect x="2225.39" y="-2" width="35.59" height="1354.00"/><rect x="2286.75" y="-2" width="35.59" height="1354.00"/><rect x="2348.11" y="-2" width="35.59" height="1354.00"/><rect x="2409.48" y="-2" width="35.59" height="1354.00"/></g></g><g clip-path="url(#c0_1)"><rect width="2400" height="1350" fill="#376047"/><g fill="#193e2d" shape-rendering="crispEdges"><rect x="-45.07" y="-2" width="35.59" height="1354.00"/><rect x="16.30" y="-2" width="35.59" height="1354.00"/><rect x="77.66" y="-2" width="35.59" height="1354.00"/><rect x="139.02" y="-2" width="35.59" height="1354.00"/><rect x="200.39" y="-2" width="35.59" height="1354.00"/><rect x="261.75" y="-2" width="35.59" height="1354.00"/><rect x="323.11" y="-2" width="35.59" height="1354.00"/><rect x="384.48" y="-2" width="35.59" height="1354.00"/><rect x="445.84" y="-2" width="35.59" height="1354.00"/><rect x="507.20" y="-2" width="35.59" height="1354.00"/><rect x="568.57" y="-2" width="35.59" height="1354.00"/><rect x="629.93" y="-2" width="35.59" height="1354.00"/><rect x="691.30" y="-2" width="35.59" height="1354.00"/><rect x="752.66" y="-2" width="35.59" height="1354.00"/><rect x="814.02" y="-2" width="35.59" height="1354.00"/><rect x="875.39" y="-2" width="35.59" height="1354.00"/><rect x="936.75" y="-2" width="35.59" height="1354.00"/><rect x="998.11" y="-2" width="35.59" height="1354.00"/><rect x="1059.48" y="-2" width="35.59" height="1354.00"/><rect x="1120.84" y="-2" width="35.59" height="1354.00"/><rect x="1182.20" y="-2" width="35.59" height="1354.00"/><rect x="1243.57" y="-2" width="35.59" height="1354.00"/><rect x="1304.93" y="-2" width="35.59" height="1354.00"/><rect x="1366.30" y="-2" width="35.59" height="1354.00"/><rect x="1427.66" y="-2" width="35.59" height="1354.00"/><rect x="1489.02" y="-2" width="35.59" height="1354.00"/><rect x="1550.39" y="-2" width="35.59" height="1354.00"/><rect x="1611.75" y="-2" width="35.59" height="1354.00"/><rect x="1673.11" y="-2" width="35.59" height="1354.00"/><rect x="1734.48" y="-2" width="35.59" height="1354.00"/><rect x="1795.84" y="-2" width="35.59" height="1354.00"/><rect x="1857.20" y="-2" width="35.59" height="1354.00"/><rect x="1918.57" y="-2" width="35.59" height="1354.00"/><rect x="1979.93" y="-2" width="35.59" height="1354.00"/><rect x="2041.30" y="-2" width="35.59" height="1354.00"/><rect x="2102.66" y="-2" width="35.59" height="1354.00"/><rect x="2164.02" y="-2" width="35.59" height="1354.00"/><rect x="2225.39" y="-2" width="35.59" height="1354.00"/><rect x="2286.75" y="-2" width="35.59" height="1354.00"/><rect x="2348.11" y="-2" width="35.59" height="1354.00"/><rect x="2409.48" y="-2" width="35.59" height="1354.00"/></g></g><g clip-path="url(#c0_0)"><rect width="2400" height="1350" fill="#275039"/><g fill="#376047" shape-rendering="crispEdges"><rect x="-45.07" y="-2" width="35.59" height="1354.00"/><rect x="16.30" y="-2" width="35.59" height="1354.00"/><rect x="77.66" y="-2" width="35.59" height="1354.00"/><rect x="139.02" y="-2" width="35.59" height="1354.00"/><rect x="200.39" y="-2" width="35.59" height="1354.00"/><rect x="261.75" y="-2" width="35.59" height="1354.00"/><rect x="323.11" y="-2" width="35.59" height="1354.00"/><rect x="384.48" y="-2" width="35.59" height="1354.00"/><rect x="445.84" y="-2" width="35.59" height="1354.00"/><rect x="507.20" y="-2" width="35.59" height="1354.00"/><rect x="568.57" y="-2" width="35.59" height="1354.00"/><rect x="629.93" y="-2" width="35.59" height="1354.00"/><rect x="691.30" y="-2" width="35.59" height="1354.00"/><rect x="752.66" y="-2" width="35.59" height="1354.00"/><rect x="814.02" y="-2" width="35.59" height="1354.00"/><rect x="875.39" y="-2" width="35.59" height="1354.00"/><rect x="936.75" y="-2" width="35.59" height="1354.00"/><rect x="998.11" y="-2" width="35.59" height="1354.00"/><rect x="1059.48" y="-2" width="35.59" height="1354.00"/><rect x="1120.84" y="-2" width="35.59" height="1354.00"/><rect x="1182.20" y="-2" width="35.59" height="1354.00"/><rect x="1243.57" y="-2" width="35.59" height="1354.00"/><rect x="1304.93" y="-2" width="35.59" height="1354.00"/><rect x="1366.30" y="-2" width="35.59" height="1354.00"/><rect x="1427.66" y="-2" width="35.59" height="1354.00"/><rect x="1489.02" y="-2" width="35.59" height="1354.00"/><rect x="1550.39" y="-2" width="35.59" height="1354.00"/><rect x="1611.75" y="-2" width="35.59" height="1354.00"/><rect x="1673.11" y="-2" width="35.59" height="1354.00"/><rect x="1734.48" y="-2" width="35.59" height="1354.00"/><rect x="1795.84" y="-2" width="35.59" height="1354.00"/><rect x="1857.20" y="-2" width="35.59" height="1354.00"/><rect x="1918.57" y="-2" width="35.59" height="1354.00"/><rect x="1979.93" y="-2" width="35.59" height="1354.00"/><rect x="2041.30" y="-2" width="35.59" height="1354.00"/><rect x="2102.66" y="-2" width="35.59" height="1354.00"/><rect x="2164.02" y="-2" width="35.59" height="1354.00"/><rect x="2225.39" y="-2" width="35.59" height="1354.00"/><rect x="2286.75" y="-2" width="35.59" height="1354.00"/><rect x="2348.11" y="-2" width="35.59" height="1354.00"/><rect x="2409.48" y="-2" width="35.59" height="1354.00"/></g></g></svg>